<svg xmlns="http://www.w3.org/2000/svg" xmlns:xlink="http://www.w3.org/1999/xlink" width="500" zoomAndPan="magnify" viewBox="0 0 375 374.999991" height="500" preserveAspectRatio="xMidYMid meet" version="1.0"><defs><g/><clipPath id="a8b6522aa0"><path d="M 160.414062 77.042969 L 244 77.042969 L 244 188.65625 L 160.414062 188.65625 Z M 160.414062 77.042969 " clip-rule="nonzero"/></clipPath><clipPath id="18d3a731c2"><path d="M 145.789062 132.9375 L 229.5 132.9375 L 229.5 244.554688 L 145.789062 244.554688 Z M 145.789062 132.9375 " clip-rule="nonzero"/></clipPath></defs><g fill="#000000" fill-opacity="1"><g transform="translate(88.800724, 288.58866)"><g><path d="M 1.359375 -21.1875 L 12.09375 -21.1875 C 14.132812 -21.1875 15.742188 -20.679688 16.921875 -19.671875 C 18.109375 -18.660156 18.703125 -17.21875 18.703125 -15.34375 C 18.703125 -14.445312 18.5 -13.613281 18.09375 -12.84375 C 17.6875 -12.082031 17.113281 -11.476562 16.375 -11.03125 C 17.40625 -10.625 18.160156 -10.039062 18.640625 -9.28125 C 19.128906 -8.53125 19.375 -7.546875 19.375 -6.328125 C 19.375 -5.035156 19.066406 -3.910156 18.453125 -2.953125 C 17.847656 -1.992188 17.035156 -1.257812 16.015625 -0.75 C 14.992188 -0.25 13.859375 0 12.609375 0 L 1.359375 0 Z M 10.90625 -12.796875 C 12.488281 -12.796875 13.28125 -13.53125 13.28125 -15 C 13.28125 -15.832031 13.078125 -16.40625 12.671875 -16.71875 C 12.265625 -17.03125 11.648438 -17.1875 10.828125 -17.1875 L 6.734375 -17.1875 L 6.734375 -12.796875 Z M 11.25 -4 C 12.15625 -4 12.828125 -4.171875 13.265625 -4.515625 C 13.710938 -4.859375 13.9375 -5.460938 13.9375 -6.328125 C 13.9375 -7.203125 13.703125 -7.835938 13.234375 -8.234375 C 12.773438 -8.628906 12.070312 -8.828125 11.125 -8.828125 L 6.734375 -8.828125 L 6.734375 -4 Z M 11.25 -4 "/></g></g></g><g fill="#000000" fill-opacity="1"><g transform="translate(108.92673, 288.58866)"><g><path d="M 12.15625 0.453125 C 10.007812 0.453125 8.070312 -0.0078125 6.34375 -0.9375 C 4.625 -1.863281 3.265625 -3.160156 2.265625 -4.828125 C 1.265625 -6.492188 0.765625 -8.410156 0.765625 -10.578125 C 0.765625 -12.742188 1.265625 -14.664062 2.265625 -16.34375 C 3.265625 -18.019531 4.625 -19.320312 6.34375 -20.25 C 8.070312 -21.175781 10.007812 -21.640625 12.15625 -21.640625 C 14.28125 -21.640625 16.203125 -21.175781 17.921875 -20.25 C 19.648438 -19.320312 21.007812 -18.019531 22 -16.34375 C 23 -14.664062 23.5 -12.742188 23.5 -10.578125 C 23.5 -8.410156 23 -6.492188 22 -4.828125 C 21.007812 -3.160156 19.648438 -1.863281 17.921875 -0.9375 C 16.203125 -0.0078125 14.28125 0.453125 12.15625 0.453125 Z M 12.15625 -4.578125 C 13.226562 -4.578125 14.207031 -4.816406 15.09375 -5.296875 C 15.976562 -5.785156 16.679688 -6.484375 17.203125 -7.390625 C 17.734375 -8.304688 18 -9.367188 18 -10.578125 C 18 -11.785156 17.738281 -12.835938 17.21875 -13.734375 C 16.707031 -14.640625 16.007812 -15.335938 15.125 -15.828125 C 14.238281 -16.328125 13.25 -16.578125 12.15625 -16.578125 C 11.039062 -16.578125 10.039062 -16.328125 9.15625 -15.828125 C 8.269531 -15.335938 7.566406 -14.640625 7.046875 -13.734375 C 6.535156 -12.835938 6.28125 -11.785156 6.28125 -10.578125 C 6.28125 -9.367188 6.535156 -8.304688 7.046875 -7.390625 C 7.566406 -6.484375 8.273438 -5.785156 9.171875 -5.296875 C 10.066406 -4.816406 11.0625 -4.578125 12.15625 -4.578125 Z M 12.15625 -4.578125 "/></g></g></g><g fill="#000000" fill-opacity="1"><g transform="translate(133.17494, 288.58866)"><g><path d="M 12.15625 0.453125 C 10.007812 0.453125 8.070312 -0.0078125 6.34375 -0.9375 C 4.625 -1.863281 3.265625 -3.160156 2.265625 -4.828125 C 1.265625 -6.492188 0.765625 -8.410156 0.765625 -10.578125 C 0.765625 -12.742188 1.265625 -14.664062 2.265625 -16.34375 C 3.265625 -18.019531 4.625 -19.320312 6.34375 -20.25 C 8.070312 -21.175781 10.007812 -21.640625 12.15625 -21.640625 C 14.28125 -21.640625 16.203125 -21.175781 17.921875 -20.25 C 19.648438 -19.320312 21.007812 -18.019531 22 -16.34375 C 23 -14.664062 23.5 -12.742188 23.5 -10.578125 C 23.5 -8.410156 23 -6.492188 22 -4.828125 C 21.007812 -3.160156 19.648438 -1.863281 17.921875 -0.9375 C 16.203125 -0.0078125 14.28125 0.453125 12.15625 0.453125 Z M 12.15625 -4.578125 C 13.226562 -4.578125 14.207031 -4.816406 15.09375 -5.296875 C 15.976562 -5.785156 16.679688 -6.484375 17.203125 -7.390625 C 17.734375 -8.304688 18 -9.367188 18 -10.578125 C 18 -11.785156 17.738281 -12.835938 17.21875 -13.734375 C 16.707031 -14.640625 16.007812 -15.335938 15.125 -15.828125 C 14.238281 -16.328125 13.25 -16.578125 12.15625 -16.578125 C 11.039062 -16.578125 10.039062 -16.328125 9.15625 -15.828125 C 8.269531 -15.335938 7.566406 -14.640625 7.046875 -13.734375 C 6.535156 -12.835938 6.28125 -11.785156 6.28125 -10.578125 C 6.28125 -9.367188 6.535156 -8.304688 7.046875 -7.390625 C 7.566406 -6.484375 8.273438 -5.785156 9.171875 -5.296875 C 10.066406 -4.816406 11.0625 -4.578125 12.15625 -4.578125 Z M 12.15625 -4.578125 "/></g></g></g><g fill="#000000" fill-opacity="1"><g transform="translate(157.42315, 288.58866)"><g><path d="M 1.359375 -21.1875 L 6.734375 -21.1875 L 6.734375 -12.390625 L 14.03125 -21.1875 L 20.40625 -21.1875 L 11.828125 -10.875 L 20.96875 0 L 14.609375 0 L 6.734375 -9.359375 L 6.734375 0 L 1.359375 0 Z M 1.359375 -21.1875 "/></g></g></g><g fill="#000000" fill-opacity="1"><g transform="translate(179.155607, 288.58866)"><g><path d="M 1.359375 -21.1875 L 12.09375 -21.1875 C 14.132812 -21.1875 15.742188 -20.679688 16.921875 -19.671875 C 18.109375 -18.660156 18.703125 -17.21875 18.703125 -15.34375 C 18.703125 -14.445312 18.5 -13.613281 18.09375 -12.84375 C 17.6875 -12.082031 17.113281 -11.476562 16.375 -11.03125 C 17.40625 -10.625 18.160156 -10.039062 18.640625 -9.28125 C 19.128906 -8.53125 19.375 -7.546875 19.375 -6.328125 C 19.375 -5.035156 19.066406 -3.910156 18.453125 -2.953125 C 17.847656 -1.992188 17.035156 -1.257812 16.015625 -0.75 C 14.992188 -0.25 13.859375 0 12.609375 0 L 1.359375 0 Z M 10.90625 -12.796875 C 12.488281 -12.796875 13.28125 -13.53125 13.28125 -15 C 13.28125 -15.832031 13.078125 -16.40625 12.671875 -16.71875 C 12.265625 -17.03125 11.648438 -17.1875 10.828125 -17.1875 L 6.734375 -17.1875 L 6.734375 -12.796875 Z M 11.25 -4 C 12.15625 -4 12.828125 -4.171875 13.265625 -4.515625 C 13.710938 -4.859375 13.9375 -5.460938 13.9375 -6.328125 C 13.9375 -7.203125 13.703125 -7.835938 13.234375 -8.234375 C 12.773438 -8.628906 12.070312 -8.828125 11.125 -8.828125 L 6.734375 -8.828125 L 6.734375 -4 Z M 11.25 -4 "/></g></g></g><g fill="#000000" fill-opacity="1"><g transform="translate(199.281613, 288.58866)"><g><path d="M 10.859375 0.453125 C 7.660156 0.453125 5.253906 -0.398438 3.640625 -2.109375 C 2.023438 -3.816406 1.21875 -6.070312 1.21875 -8.875 L 1.21875 -21.1875 L 6.578125 -21.1875 L 6.578125 -8.828125 C 6.578125 -7.410156 6.953125 -6.335938 7.703125 -5.609375 C 8.460938 -4.878906 9.515625 -4.515625 10.859375 -4.515625 C 12.191406 -4.515625 13.226562 -4.878906 13.96875 -5.609375 C 14.71875 -6.335938 15.09375 -7.410156 15.09375 -8.828125 L 15.09375 -21.1875 L 20.46875 -21.1875 L 20.46875 -8.875 C 20.46875 -6.050781 19.660156 -3.789062 18.046875 -2.09375 C 16.441406 -0.394531 14.046875 0.453125 10.859375 0.453125 Z M 10.859375 0.453125 "/></g></g></g><g fill="#000000" fill-opacity="1"><g transform="translate(220.953451, 288.58866)"><g><path d="M 1.359375 -21.1875 L 8.96875 -21.1875 C 11.289062 -21.1875 13.320312 -20.757812 15.0625 -19.90625 C 16.800781 -19.0625 18.140625 -17.847656 19.078125 -16.265625 C 20.015625 -14.679688 20.484375 -12.828125 20.484375 -10.703125 C 20.484375 -7.179688 19.453125 -4.515625 17.390625 -2.703125 C 15.335938 -0.898438 12.484375 0 8.828125 0 L 1.359375 0 Z M 9.28125 -4.515625 C 11.113281 -4.515625 12.519531 -5.066406 13.5 -6.171875 C 14.476562 -7.285156 14.96875 -8.796875 14.96875 -10.703125 C 14.96875 -12.441406 14.476562 -13.867188 13.5 -14.984375 C 12.519531 -16.109375 11.171875 -16.671875 9.453125 -16.671875 L 6.734375 -16.671875 L 6.734375 -4.515625 Z M 9.28125 -4.515625 "/></g></g></g><g fill="#000000" fill-opacity="1"><g transform="translate(242.20094, 288.58866)"><g><path d="M 1.359375 -21.1875 L 8.96875 -21.1875 C 11.289062 -21.1875 13.320312 -20.757812 15.0625 -19.90625 C 16.800781 -19.0625 18.140625 -17.847656 19.078125 -16.265625 C 20.015625 -14.679688 20.484375 -12.828125 20.484375 -10.703125 C 20.484375 -7.179688 19.453125 -4.515625 17.390625 -2.703125 C 15.335938 -0.898438 12.484375 0 8.828125 0 L 1.359375 0 Z M 9.28125 -4.515625 C 11.113281 -4.515625 12.519531 -5.066406 13.5 -6.171875 C 14.476562 -7.285156 14.96875 -8.796875 14.96875 -10.703125 C 14.96875 -12.441406 14.476562 -13.867188 13.5 -14.984375 C 12.519531 -16.109375 11.171875 -16.671875 9.453125 -16.671875 L 6.734375 -16.671875 L 6.734375 -4.515625 Z M 9.28125 -4.515625 "/></g></g></g><g fill="#000000" fill-opacity="1"><g transform="translate(263.44843, 288.58866)"><g><path d="M 8.578125 -8.0625 L 0.765625 -21.1875 L 6.484375 -21.1875 L 11.28125 -12.96875 L 16.28125 -21.1875 L 21.984375 -21.1875 L 13.9375 -8.0625 L 13.9375 0 L 8.578125 0 Z M 8.578125 -8.0625 "/></g></g></g><g clip-path="url(#a8b6522aa0)"><path fill="#384bf5" d="M 225.804688 122.703125 C 232.621094 118.886719 238.371094 112.867188 238.371094 102.058594 L 238.371094 101.765625 C 238.371094 86.75 226.34375 77.039062 206.796875 77.039062 L 171.902344 77.039062 C 165.636719 77.039062 160.558594 82.121094 160.558594 88.386719 L 160.558594 172.726562 L 165.398438 172.726562 L 165.398438 88.957031 C 165.398438 86.171875 167.65625 83.917969 170.4375 83.917969 C 173.222656 83.917969 175.476562 86.171875 175.476562 88.957031 L 175.476562 172.726562 L 184.757812 172.726562 L 184.757812 188.820312 L 194.632812 182.46875 L 204.5 188.820312 L 204.5 172.726562 L 207.894531 172.726562 C 229.496094 172.726562 243.6875 163.980469 243.6875 146.472656 L 243.6875 146.199219 C 243.6875 133.335938 236.875 126.921875 225.804688 122.703125 " fill-opacity="1" fill-rule="nonzero"/></g><g clip-path="url(#18d3a731c2)"><path fill="#43bfad" d="M 211.179688 178.597656 C 217.996094 174.785156 223.746094 168.765625 223.746094 157.957031 L 223.746094 157.664062 C 223.746094 142.644531 211.71875 132.933594 192.171875 132.933594 L 157.277344 132.933594 C 151.011719 132.933594 145.933594 138.015625 145.933594 144.28125 L 145.933594 228.621094 L 150.773438 228.621094 L 150.773438 144.851562 C 150.773438 142.070312 153.03125 139.816406 155.8125 139.816406 C 158.597656 139.816406 160.851562 142.070312 160.851562 144.851562 L 160.851562 228.621094 L 170.132812 228.621094 L 170.132812 244.71875 L 180.003906 238.367188 L 189.875 244.71875 L 189.875 228.621094 L 193.269531 228.621094 C 214.871094 228.621094 229.0625 219.875 229.0625 202.367188 L 229.0625 202.09375 C 229.0625 189.234375 222.25 182.816406 211.179688 178.597656 " fill-opacity="1" fill-rule="nonzero"/></g></svg>