<svg xmlns="http://www.w3.org/2000/svg" xmlns:xlink="http://www.w3.org/1999/xlink" width="500" zoomAndPan="magnify" viewBox="0 0 375 374.999991" height="500" preserveAspectRatio="xMidYMid meet" version="1.0"><defs><clipPath id="442bf62ca8"><path d="M 128 42.03125 L 273 42.03125 L 273 235.683594 L 128 235.683594 Z M 128 42.03125 " clip-rule="nonzero"/></clipPath><clipPath id="8f32587ecc"><path d="M 102.441406 139.011719 L 247 139.011719 L 247 332.664062 L 102.441406 332.664062 Z M 102.441406 139.011719 " clip-rule="nonzero"/></clipPath></defs><g clip-path="url(#442bf62ca8)"><path fill="#384bf5" d="M 241.273438 121.25 C 253.097656 114.636719 263.074219 104.191406 263.074219 85.441406 L 263.074219 84.929688 C 263.074219 58.875 242.203125 42.027344 208.289062 42.027344 L 147.75 42.027344 C 136.882812 42.027344 128.070312 50.84375 128.070312 61.714844 L 128.070312 208.042969 L 136.46875 208.042969 L 136.46875 62.703125 C 136.46875 57.875 140.382812 53.964844 145.210938 53.964844 C 150.039062 53.964844 153.953125 57.875 153.953125 62.703125 L 153.953125 208.042969 L 170.054688 208.042969 L 170.054688 235.96875 L 187.183594 224.949219 L 204.308594 235.96875 L 204.308594 208.042969 L 210.195312 208.042969 C 247.671875 208.042969 272.296875 192.871094 272.296875 162.492188 L 272.296875 162.019531 C 272.296875 139.707031 260.480469 128.574219 241.273438 121.25 " fill-opacity="1" fill-rule="nonzero"/></g><g clip-path="url(#8f32587ecc)"><path fill="#43bfad" d="M 215.898438 218.230469 C 227.722656 211.613281 237.703125 201.171875 237.703125 182.417969 L 237.703125 181.910156 C 237.703125 155.855469 216.828125 139.003906 182.914062 139.003906 L 122.378906 139.003906 C 111.507812 139.003906 102.695312 147.824219 102.695312 158.691406 L 102.695312 305.019531 L 111.09375 305.019531 L 111.09375 159.683594 C 111.09375 154.855469 115.007812 150.945312 119.835938 150.945312 C 124.664062 150.945312 128.578125 154.855469 128.578125 159.683594 L 128.578125 305.019531 L 144.679688 305.019531 L 144.679688 332.949219 L 161.8125 321.929688 L 178.9375 332.949219 L 178.9375 305.019531 L 184.820312 305.019531 C 222.296875 305.019531 246.921875 289.847656 246.921875 259.472656 L 246.921875 258.996094 C 246.921875 236.683594 235.105469 225.554688 215.898438 218.230469 " fill-opacity="1" fill-rule="nonzero"/></g></svg>