<svg xmlns="http://www.w3.org/2000/svg" xmlns:xlink="http://www.w3.org/1999/xlink" width="500" zoomAndPan="magnify" viewBox="0 0 375 374.999991" height="500" preserveAspectRatio="xMidYMid meet" version="1.0"><defs><clipPath id="379bc28a11"><path d="M 128 42.214844 L 272.949219 42.214844 L 272.949219 235.625 L 128 235.625 Z M 128 42.214844 " clip-rule="nonzero"/></clipPath><clipPath id="60549f6524"><path d="M 102.546875 139.070312 L 247 139.070312 L 247 332.484375 L 102.546875 332.484375 Z M 102.546875 139.070312 " clip-rule="nonzero"/></clipPath></defs><g clip-path="url(#379bc28a11)"><path fill="#fd78ff" d="M 241.207031 121.335938 C 253.015625 114.726562 262.980469 104.296875 262.980469 85.566406 L 262.980469 85.058594 C 262.980469 59.035156 242.136719 42.207031 208.265625 42.207031 L 147.800781 42.207031 C 136.945312 42.207031 128.144531 51.015625 128.144531 61.871094 L 128.144531 208.015625 L 136.53125 208.015625 L 136.53125 62.859375 C 136.53125 58.035156 140.441406 54.132812 145.265625 54.132812 C 150.085938 54.132812 153.996094 58.035156 153.996094 62.859375 L 153.996094 208.015625 L 170.074219 208.015625 L 170.074219 235.910156 L 187.183594 224.902344 L 204.289062 235.910156 L 204.289062 208.015625 L 210.164062 208.015625 C 247.597656 208.015625 272.191406 192.863281 272.191406 162.523438 L 272.191406 162.050781 C 272.191406 139.765625 260.390625 128.648438 241.207031 121.335938 " fill-opacity="1" fill-rule="nonzero"/></g><g clip-path="url(#60549f6524)"><path fill="#bbff33" d="M 215.863281 218.191406 C 227.671875 211.585938 237.640625 201.152344 237.640625 182.425781 L 237.640625 181.914062 C 237.640625 155.894531 216.792969 139.066406 182.921875 139.066406 L 122.457031 139.066406 C 111.605469 139.066406 102.800781 147.871094 102.800781 158.726562 L 102.800781 304.875 L 111.191406 304.875 L 111.191406 159.714844 C 111.191406 154.894531 115.097656 150.988281 119.921875 150.988281 C 124.742188 150.988281 128.652344 154.894531 128.652344 159.714844 L 128.652344 304.875 L 144.734375 304.875 L 144.734375 332.765625 L 161.84375 321.761719 L 178.945312 332.765625 L 178.945312 304.875 L 184.824219 304.875 C 222.253906 304.875 246.851562 289.722656 246.851562 259.382812 L 246.851562 258.90625 C 246.851562 236.621094 235.046875 225.503906 215.863281 218.191406 " fill-opacity="1" fill-rule="nonzero"/></g></svg>